<mxfile host="app.diagrams.net" agent="Mozilla/5.0 (Windows NT 10.0; Win64; x64) AppleWebKit/537.36 (KHTML, like Gecko) Chrome/134.0.0.0 Safari/537.36 OPR/119.0.0.0" version="28.0.5">
  <diagram name="Page-1" id="CFkTU83PlunPRarvs-fn">
    <mxGraphModel dx="971" dy="533" grid="1" gridSize="10" guides="1" tooltips="1" connect="1" arrows="1" fold="1" page="1" pageScale="1" pageWidth="850" pageHeight="1100" math="0" shadow="0">
      <root>
        <mxCell id="0" />
        <mxCell id="1" parent="0" />
        <mxCell id="uTGP6NqTZdfKWgKjHSfX-3" value="" style="rounded=1;whiteSpace=wrap;html=1;fillColor=#d5e8d4;strokeColor=#82b366;glass=0;shadow=0;opacity=50;" parent="1" vertex="1">
          <mxGeometry x="20" y="640" width="640" height="100" as="geometry" />
        </mxCell>
        <mxCell id="uTGP6NqTZdfKWgKjHSfX-4" value="" style="rounded=1;whiteSpace=wrap;html=1;fillColor=#d5e8d4;strokeColor=#82b366;glass=0;shadow=0;opacity=50;" parent="1" vertex="1">
          <mxGeometry x="20" y="780" width="640" height="100" as="geometry" />
        </mxCell>
        <mxCell id="OSacZbQIrs5ra-HvR3IC-8" value="" style="group" vertex="1" connectable="0" parent="1">
          <mxGeometry x="20" y="100" width="800" height="410" as="geometry" />
        </mxCell>
        <mxCell id="uTGP6NqTZdfKWgKjHSfX-2" value="" style="rounded=1;whiteSpace=wrap;html=1;fillColor=#d5e8d4;strokeColor=#82b366;glass=0;shadow=0;opacity=50;" parent="OSacZbQIrs5ra-HvR3IC-8" vertex="1">
          <mxGeometry y="140" width="800" height="270" as="geometry" />
        </mxCell>
        <mxCell id="t9Bq_UQ6VEND_BJtQZHo-1" value="" style="rounded=1;whiteSpace=wrap;html=1;fillColor=#d5e8d4;strokeColor=#82b366;glass=0;shadow=0;opacity=50;" parent="OSacZbQIrs5ra-HvR3IC-8" vertex="1">
          <mxGeometry width="800" height="100" as="geometry" />
        </mxCell>
        <mxCell id="OSacZbQIrs5ra-HvR3IC-6" value="" style="group" vertex="1" connectable="0" parent="OSacZbQIrs5ra-HvR3IC-8">
          <mxGeometry x="10" y="20" width="740" height="390" as="geometry" />
        </mxCell>
        <mxCell id="BXnyXIVlkYdwDWb7RC4q-12" value="" style="edgeStyle=orthogonalEdgeStyle;rounded=0;orthogonalLoop=1;jettySize=auto;html=1;" parent="OSacZbQIrs5ra-HvR3IC-6" source="t9Bq_UQ6VEND_BJtQZHo-2" target="BXnyXIVlkYdwDWb7RC4q-2" edge="1">
          <mxGeometry relative="1" as="geometry" />
        </mxCell>
        <mxCell id="t9Bq_UQ6VEND_BJtQZHo-2" value="" style="rounded=1;whiteSpace=wrap;html=1;fillColor=#d5e8d4;strokeColor=#82b366;" parent="OSacZbQIrs5ra-HvR3IC-6" vertex="1">
          <mxGeometry x="10" width="110" height="50" as="geometry" />
        </mxCell>
        <mxCell id="BXnyXIVlkYdwDWb7RC4q-1" value="" style="rounded=1;whiteSpace=wrap;html=1;fillColor=#d5e8d4;strokeColor=#82b366;" parent="OSacZbQIrs5ra-HvR3IC-6" vertex="1">
          <mxGeometry x="630" width="110" height="50" as="geometry" />
        </mxCell>
        <mxCell id="BXnyXIVlkYdwDWb7RC4q-8" value="" style="edgeStyle=orthogonalEdgeStyle;rounded=0;orthogonalLoop=1;jettySize=auto;html=1;" parent="OSacZbQIrs5ra-HvR3IC-6" source="BXnyXIVlkYdwDWb7RC4q-2" target="BXnyXIVlkYdwDWb7RC4q-3" edge="1">
          <mxGeometry relative="1" as="geometry" />
        </mxCell>
        <mxCell id="BXnyXIVlkYdwDWb7RC4q-2" value="" style="rounded=1;whiteSpace=wrap;html=1;fillColor=#d5e8d4;strokeColor=#82b366;" parent="OSacZbQIrs5ra-HvR3IC-6" vertex="1">
          <mxGeometry x="10" y="160" width="110" height="50" as="geometry" />
        </mxCell>
        <mxCell id="BXnyXIVlkYdwDWb7RC4q-9" value="" style="edgeStyle=orthogonalEdgeStyle;rounded=0;orthogonalLoop=1;jettySize=auto;html=1;" parent="OSacZbQIrs5ra-HvR3IC-6" edge="1">
          <mxGeometry relative="1" as="geometry">
            <mxPoint x="160" y="200" as="sourcePoint" />
            <mxPoint x="210" y="200" as="targetPoint" />
          </mxGeometry>
        </mxCell>
        <mxCell id="OSacZbQIrs5ra-HvR3IC-5" value="" style="edgeStyle=orthogonalEdgeStyle;rounded=0;orthogonalLoop=1;jettySize=auto;html=1;" edge="1" parent="OSacZbQIrs5ra-HvR3IC-6" source="BXnyXIVlkYdwDWb7RC4q-3" target="BXnyXIVlkYdwDWb7RC4q-4">
          <mxGeometry relative="1" as="geometry" />
        </mxCell>
        <mxCell id="BXnyXIVlkYdwDWb7RC4q-3" value="" style="rounded=1;whiteSpace=wrap;html=1;fillColor=#d5e8d4;strokeColor=#82b366;" parent="OSacZbQIrs5ra-HvR3IC-6" vertex="1">
          <mxGeometry x="160" y="160" width="110" height="50" as="geometry" />
        </mxCell>
        <mxCell id="BXnyXIVlkYdwDWb7RC4q-10" value="" style="edgeStyle=orthogonalEdgeStyle;rounded=0;orthogonalLoop=1;jettySize=auto;html=1;" parent="OSacZbQIrs5ra-HvR3IC-6" source="BXnyXIVlkYdwDWb7RC4q-4" target="BXnyXIVlkYdwDWb7RC4q-5" edge="1">
          <mxGeometry relative="1" as="geometry" />
        </mxCell>
        <mxCell id="BXnyXIVlkYdwDWb7RC4q-16" style="edgeStyle=orthogonalEdgeStyle;rounded=0;orthogonalLoop=1;jettySize=auto;html=1;exitX=0.75;exitY=1;exitDx=0;exitDy=0;entryX=0;entryY=0.25;entryDx=0;entryDy=0;" parent="OSacZbQIrs5ra-HvR3IC-6" source="BXnyXIVlkYdwDWb7RC4q-4" target="BXnyXIVlkYdwDWb7RC4q-7" edge="1">
          <mxGeometry relative="1" as="geometry" />
        </mxCell>
        <mxCell id="BXnyXIVlkYdwDWb7RC4q-4" value="" style="rounded=1;whiteSpace=wrap;html=1;fillColor=#d5e8d4;strokeColor=#82b366;" parent="OSacZbQIrs5ra-HvR3IC-6" vertex="1">
          <mxGeometry x="320" y="160" width="110" height="50" as="geometry" />
        </mxCell>
        <mxCell id="BXnyXIVlkYdwDWb7RC4q-11" value="" style="edgeStyle=orthogonalEdgeStyle;rounded=0;orthogonalLoop=1;jettySize=auto;html=1;" parent="OSacZbQIrs5ra-HvR3IC-6" source="BXnyXIVlkYdwDWb7RC4q-5" target="BXnyXIVlkYdwDWb7RC4q-6" edge="1">
          <mxGeometry relative="1" as="geometry" />
        </mxCell>
        <mxCell id="BXnyXIVlkYdwDWb7RC4q-5" value="" style="rounded=1;whiteSpace=wrap;html=1;fillColor=#d5e8d4;strokeColor=#82b366;" parent="OSacZbQIrs5ra-HvR3IC-6" vertex="1">
          <mxGeometry x="470" y="160" width="110" height="50" as="geometry" />
        </mxCell>
        <mxCell id="BXnyXIVlkYdwDWb7RC4q-13" value="" style="edgeStyle=orthogonalEdgeStyle;rounded=0;orthogonalLoop=1;jettySize=auto;html=1;" parent="OSacZbQIrs5ra-HvR3IC-6" source="BXnyXIVlkYdwDWb7RC4q-6" target="BXnyXIVlkYdwDWb7RC4q-7" edge="1">
          <mxGeometry relative="1" as="geometry" />
        </mxCell>
        <mxCell id="BXnyXIVlkYdwDWb7RC4q-7" value="" style="rounded=1;whiteSpace=wrap;html=1;fillColor=#d5e8d4;strokeColor=#82b366;" parent="OSacZbQIrs5ra-HvR3IC-6" vertex="1">
          <mxGeometry x="620" y="270" width="110" height="50" as="geometry" />
        </mxCell>
        <mxCell id="BXnyXIVlkYdwDWb7RC4q-22" value="&lt;div&gt;&lt;div&gt;Process Flow:&lt;/div&gt;&lt;div style=&quot;text-align: left;&quot;&gt;&lt;span style=&quot;background-color: transparent; color: light-dark(rgb(0, 0, 0), rgb(255, 255, 255));&quot;&gt;1. Frontend Pod sends network traffic&amp;nbsp;&lt;span style=&quot;white-space: pre;&quot;&gt;&#x9;&lt;/span&gt;&lt;span style=&quot;white-space: pre;&quot;&gt;&#x9;&lt;/span&gt;&lt;span style=&quot;white-space: pre;&quot;&gt;&#x9;&lt;/span&gt;&lt;span style=&quot;white-space: pre;&quot;&gt;&#x9;&lt;/span&gt;&lt;/span&gt;&lt;span style=&quot;background-color: transparent; color: light-dark(rgb(0, 0, 0), rgb(255, 255, 255));&quot;&gt;4. Policy check verifies connection&lt;/span&gt;&lt;/div&gt;&lt;blockquote style=&quot;margin: 0px 0px 0px 40px; border: none; padding: 0px;&quot;&gt;&lt;blockquote style=&quot;margin: 0px 0px 0px 40px; border: none; padding: 0px;&quot;&gt;&lt;blockquote style=&quot;margin: 0px 0px 0px 40px; border: none; padding: 0px;&quot;&gt;&lt;blockquote style=&quot;margin: 0px 0px 0px 40px; border: none; padding: 0px;&quot;&gt;&lt;blockquote style=&quot;margin: 0px 0px 0px 40px; border: none; padding: 0px;&quot;&gt;&lt;blockquote style=&quot;margin: 0px 0px 0px 40px; border: none; padding: 0px;&quot;&gt;&lt;blockquote style=&quot;margin: 0px 0px 0px 40px; border: none; padding: 0px;&quot;&gt;&lt;div&gt;&lt;/div&gt;&lt;/blockquote&gt;&lt;/blockquote&gt;&lt;/blockquote&gt;&lt;/blockquote&gt;&lt;/blockquote&gt;&lt;/blockquote&gt;&lt;/blockquote&gt;&lt;div style=&quot;text-align: left;&quot;&gt;2. tc egress hook intercepts the traffic&amp;nbsp;&lt;span style=&quot;white-space: pre;&quot;&gt;&#x9;&lt;/span&gt;&lt;span style=&quot;white-space: pre;&quot;&gt;&#x9;&lt;/span&gt;&lt;span style=&quot;white-space: pre;&quot;&gt;&#x9;&lt;/span&gt;&lt;span style=&quot;white-space: pre;&quot;&gt;&#x9;&lt;/span&gt;&lt;span style=&quot;background-color: transparent; color: light-dark(rgb(0, 0, 0), rgb(255, 255, 255));&quot;&gt;5. Store flow data with policy decision&lt;/span&gt;&lt;/div&gt;&lt;div style=&quot;text-align: left;&quot;&gt;3. Cilium eBPF program triggered by hook point&amp;nbsp;&lt;span style=&quot;white-space: pre;&quot;&gt;&#x9;&lt;/span&gt;&lt;span style=&quot;white-space: pre;&quot;&gt;&#x9;&lt;/span&gt;&lt;span style=&quot;background-color: transparent; color: light-dark(rgb(0, 0, 0), rgb(255, 255, 255));&quot;&gt;6-8. Map operations &amp;amp; agent flow collection&lt;/span&gt;&lt;/div&gt;&lt;/div&gt;" style="text;html=1;align=center;verticalAlign=middle;whiteSpace=wrap;rounded=0;" parent="OSacZbQIrs5ra-HvR3IC-6" vertex="1">
          <mxGeometry y="260" width="510" height="130" as="geometry" />
        </mxCell>
        <mxCell id="BXnyXIVlkYdwDWb7RC4q-6" value="" style="rounded=1;whiteSpace=wrap;html=1;fillColor=#d5e8d4;strokeColor=#82b366;" parent="OSacZbQIrs5ra-HvR3IC-6" vertex="1">
          <mxGeometry x="620" y="160" width="110" height="50" as="geometry" />
        </mxCell>
        <mxCell id="OSacZbQIrs5ra-HvR3IC-3" value="" style="endArrow=classic;html=1;rounded=0;entryX=0.75;entryY=1;entryDx=0;entryDy=0;exitX=0.855;exitY=0.047;exitDx=0;exitDy=0;exitPerimeter=0;" edge="1" parent="OSacZbQIrs5ra-HvR3IC-6" target="BXnyXIVlkYdwDWb7RC4q-1">
          <mxGeometry width="50" height="50" relative="1" as="geometry">
            <mxPoint x="711.55" y="270" as="sourcePoint" />
            <mxPoint x="710" y="47.650000000000006" as="targetPoint" />
          </mxGeometry>
        </mxCell>
      </root>
    </mxGraphModel>
  </diagram>
</mxfile>
